<svg width="81" height="30" viewBox="0 0 81 30" fill="none" xmlns="http://www.w3.org/2000/svg">
<path d="M0 0H77C79.2091 0 81 1.79086 81 4V26C81 28.2091 79.2091 30 77 30H0V0Z" fill="#7197FE"/>
<path d="M23.884 14.668C24.356 14.756 24.756 14.996 25.084 15.388C25.412 15.78 25.576 16.236 25.576 16.756C25.576 17.18 25.468 17.564 25.252 17.908C25.044 18.244 24.736 18.512 24.328 18.712C23.92 18.904 23.432 19 22.864 19H19.96V10.612H22.78C23.628 10.612 24.272 10.808 24.712 11.2C25.16 11.592 25.384 12.1 25.384 12.724C25.384 13.244 25.244 13.668 24.964 13.996C24.684 14.316 24.324 14.54 23.884 14.668ZM20.8 14.32H22.756C23.324 14.32 23.76 14.188 24.064 13.924C24.376 13.652 24.532 13.28 24.532 12.808C24.532 12.344 24.376 11.98 24.064 11.716C23.76 11.452 23.312 11.32 22.72 11.32H20.8V14.32ZM22.804 18.292C23.412 18.292 23.884 18.148 24.22 17.86C24.564 17.572 24.736 17.176 24.736 16.672C24.736 16.168 24.556 15.768 24.196 15.472C23.844 15.168 23.368 15.016 22.768 15.016H20.8V18.292H22.804ZM27.9602 13.612C28.1442 13.204 28.4242 12.888 28.8002 12.664C29.1842 12.44 29.6522 12.328 30.2042 12.328V13.204H29.9762C29.3682 13.204 28.8802 13.368 28.5122 13.696C28.1442 14.024 27.9602 14.572 27.9602 15.34V19H27.1202V12.448H27.9602V13.612ZM34.3358 19.096C33.7198 19.096 33.1638 18.96 32.6678 18.688C32.1798 18.408 31.7918 18.016 31.5038 17.512C31.2238 17 31.0838 16.404 31.0838 15.724C31.0838 15.044 31.2278 14.452 31.5158 13.948C31.8038 13.436 32.1958 13.044 32.6918 12.772C33.1878 12.492 33.7438 12.352 34.3598 12.352C34.9758 12.352 35.5318 12.492 36.0278 12.772C36.5318 13.044 36.9238 13.436 37.2038 13.948C37.4918 14.452 37.6358 15.044 37.6358 15.724C37.6358 16.396 37.4918 16.988 37.2038 17.5C36.9158 18.012 36.5198 18.408 36.0158 18.688C35.5118 18.96 34.9518 19.096 34.3358 19.096ZM34.3358 18.364C34.7678 18.364 35.1678 18.268 35.5358 18.076C35.9038 17.876 36.1998 17.58 36.4238 17.188C36.6558 16.788 36.7718 16.3 36.7718 15.724C36.7718 15.148 36.6598 14.664 36.4358 14.272C36.2118 13.872 35.9158 13.576 35.5478 13.384C35.1798 13.184 34.7798 13.084 34.3478 13.084C33.9158 13.084 33.5158 13.184 33.1478 13.384C32.7798 13.576 32.4838 13.872 32.2598 14.272C32.0438 14.664 31.9358 15.148 31.9358 15.724C31.9358 16.3 32.0438 16.788 32.2598 17.188C32.4838 17.58 32.7758 17.876 33.1358 18.076C33.5038 18.268 33.9038 18.364 34.3358 18.364ZM47.807 12.448L45.755 19H44.915L43.103 13.504L41.291 19H40.439L38.387 12.448H39.239L40.871 18.148L42.707 12.448H43.547L45.359 18.16L46.979 12.448H47.807ZM51.2082 19.096C50.4562 19.096 49.8402 18.924 49.3602 18.58C48.8882 18.228 48.6242 17.752 48.5682 17.152H49.4322C49.4722 17.52 49.6442 17.82 49.9482 18.052C50.2602 18.276 50.6762 18.388 51.1962 18.388C51.6522 18.388 52.0082 18.28 52.2642 18.064C52.5282 17.848 52.6602 17.58 52.6602 17.26C52.6602 17.036 52.5882 16.852 52.4442 16.708C52.3002 16.564 52.1162 16.452 51.8922 16.372C51.6762 16.284 51.3802 16.192 51.0042 16.096C50.5162 15.968 50.1202 15.84 49.8162 15.712C49.5122 15.584 49.2522 15.396 49.0362 15.148C48.8282 14.892 48.7242 14.552 48.7242 14.128C48.7242 13.808 48.8202 13.512 49.0122 13.24C49.2042 12.968 49.4762 12.752 49.8282 12.592C50.1802 12.432 50.5802 12.352 51.0282 12.352C51.7322 12.352 52.3002 12.532 52.7322 12.892C53.1642 13.244 53.3962 13.732 53.4282 14.356H52.5882C52.5642 13.972 52.4122 13.664 52.1322 13.432C51.8602 13.192 51.4842 13.072 51.0042 13.072C50.5802 13.072 50.2362 13.172 49.9722 13.372C49.7082 13.572 49.5762 13.82 49.5762 14.116C49.5762 14.372 49.6522 14.584 49.8042 14.752C49.9642 14.912 50.1602 15.04 50.3922 15.136C50.6242 15.224 50.9362 15.324 51.3282 15.436C51.8002 15.564 52.1762 15.688 52.4562 15.808C52.7362 15.928 52.9762 16.104 53.1762 16.336C53.3762 16.568 53.4802 16.876 53.4882 17.26C53.4882 17.612 53.3922 17.928 53.2002 18.208C53.0082 18.48 52.7402 18.696 52.3962 18.856C52.0522 19.016 51.6562 19.096 51.2082 19.096ZM60.9974 15.388C60.9974 15.676 60.9894 15.896 60.9734 16.048H55.5374C55.5614 16.544 55.6814 16.968 55.8974 17.32C56.1134 17.672 56.3974 17.94 56.7494 18.124C57.1014 18.3 57.4854 18.388 57.9014 18.388C58.4454 18.388 58.9014 18.256 59.2694 17.992C59.6454 17.728 59.8934 17.372 60.0134 16.924H60.9014C60.7414 17.564 60.3974 18.088 59.8694 18.496C59.3494 18.896 58.6934 19.096 57.9014 19.096C57.2854 19.096 56.7334 18.96 56.2454 18.688C55.7574 18.408 55.3734 18.016 55.0934 17.512C54.8214 17 54.6854 16.404 54.6854 15.724C54.6854 15.044 54.8214 14.448 55.0934 13.936C55.3654 13.424 55.7454 13.032 56.2334 12.76C56.7214 12.488 57.2774 12.352 57.9014 12.352C58.5254 12.352 59.0694 12.488 59.5334 12.76C60.0054 13.032 60.3654 13.4 60.6134 13.864C60.8694 14.32 60.9974 14.828 60.9974 15.388ZM60.1454 15.364C60.1534 14.876 60.0534 14.46 59.8454 14.116C59.6454 13.772 59.3694 13.512 59.0174 13.336C58.6654 13.16 58.2814 13.072 57.8654 13.072C57.2414 13.072 56.7094 13.272 56.2694 13.672C55.8294 14.072 55.5854 14.636 55.5374 15.364H60.1454Z" fill="white"/>
</svg>
