<svg width="54" height="32" viewBox="0 0 54 32" fill="none" xmlns="http://www.w3.org/2000/svg">
<path d="M29.4823 13.4256C30.784 13.4256 32.0565 13.0358 33.1389 12.3056C34.2212 11.5753 35.0648 10.5374 35.563 9.32311C36.0611 8.10878 36.1915 6.77257 35.9375 5.48344C35.6836 4.19432 35.0567 3.01018 34.1362 2.08077C33.2158 1.15136 32.043 0.518428 30.7663 0.262005C29.4896 0.00558165 28.1662 0.137187 26.9635 0.640179C25.7609 1.14317 24.733 1.99496 24.0098 3.08783C23.2865 4.18069 22.9005 5.46556 22.9005 6.77994C22.9005 8.54247 23.594 10.2328 24.8283 11.4791C26.0626 12.7254 27.7367 13.4256 29.4823 13.4256ZM29.4823 4.56473C29.9162 4.56473 30.3403 4.69465 30.7011 4.93806C31.0619 5.18147 31.3431 5.52744 31.5092 5.93222C31.6752 6.33699 31.7187 6.7824 31.634 7.21211C31.5494 7.64182 31.3404 8.03653 31.0336 8.34633C30.7268 8.65613 30.3358 8.86711 29.9103 8.95259C29.4847 9.03806 29.0436 8.99419 28.6427 8.82653C28.2418 8.65886 27.8992 8.37494 27.6581 8.01065C27.417 7.64636 27.2883 7.21807 27.2883 6.77994C27.2883 6.19243 27.5195 5.62898 27.9309 5.21355C28.3424 4.79812 28.9004 4.56473 29.4823 4.56473ZM38.4992 13.1154C39.7828 11.2569 40.471 9.0457 40.471 6.77994C40.471 4.51419 39.7828 2.30293 38.4992 0.44444C39.1302 0.239341 39.789 0.134711 40.4518 0.13431C42.1974 0.13431 43.8715 0.834473 45.1058 2.08077C46.3401 3.32707 47.0335 5.01741 47.0335 6.77994C47.0335 8.54247 46.3401 10.2328 45.1058 11.4791C43.8715 12.7254 42.1974 13.4256 40.4518 13.4256C39.789 13.4252 39.1302 13.3205 38.4992 13.1154ZM29.4823 17.856C16.3188 17.856 16.3188 26.7168 16.3188 26.7168V31.1473H42.6457V26.7168C42.6457 26.7168 42.6457 17.856 29.4823 17.856ZM20.7066 26.7168C20.7066 26.0744 21.4087 22.2864 29.4823 22.2864C37.1609 22.2864 38.1263 25.7421 38.2579 26.7168H20.7066ZM53.6153 26.7168V31.1473H47.0335V26.7168C46.9823 25.0701 46.6067 23.4503 45.9286 21.9517C45.2506 20.4532 44.2838 19.106 43.0845 17.9889C53.6153 19.0744 53.6153 26.7168 53.6153 26.7168ZM18.5127 15.6408H11.931V22.2864H7.54316V15.6408H0.961426V11.2104H7.54316V4.56473H11.931V11.2104H18.5127V15.6408Z" fill="#7197FE"/>
</svg>
