<svg width="16" height="12" viewBox="0 0 16 12" fill="none" xmlns="http://www.w3.org/2000/svg">
<path d="M12.5 12H9.5L12.5 0H15.5L12.5 12ZM11 0H8L5 12H8L11 0ZM0.5 9.375C0.5 9.87228 0.697544 10.3492 1.04917 10.7008C1.40081 11.0525 1.87772 11.25 2.375 11.25C2.62123 11.25 2.86505 11.2015 3.09253 11.1073C3.32002 11.013 3.52672 10.8749 3.70083 10.7008C3.87494 10.5267 4.01305 10.32 4.10727 10.0925C4.2015 9.86505 4.25 9.62123 4.25 9.375C4.25 9.12877 4.2015 8.88495 4.10727 8.65747C4.01305 8.42998 3.87494 8.22328 3.70083 8.04918C3.52672 7.87506 3.32002 7.73695 3.09253 7.64273C2.86505 7.5485 2.62123 7.5 2.375 7.5C1.87772 7.5 1.40081 7.69754 1.04917 8.04918C0.697544 8.40081 0.5 8.87772 0.5 9.375ZM0.5 4.125C0.5 4.37123 0.548498 4.61505 0.642726 4.84253C0.736953 5.07002 0.875065 5.27672 1.04917 5.45083C1.40081 5.80246 1.87772 6 2.375 6C2.62123 6 2.86505 5.9515 3.09253 5.85727C3.32002 5.76305 3.52672 5.62494 3.70083 5.45083C3.87494 5.27672 4.01305 5.07002 4.10727 4.84253C4.2015 4.61505 4.25 4.37123 4.25 4.125C4.25 3.87877 4.2015 3.63495 4.10727 3.40747C4.01305 3.17998 3.87494 2.97328 3.70083 2.79917C3.52672 2.62506 3.32002 2.48695 3.09253 2.39273C2.86505 2.2985 2.62123 2.25 2.375 2.25C1.87772 2.25 1.40081 2.44754 1.04917 2.79917C0.697544 3.15081 0.5 3.62772 0.5 4.125Z" fill="#8B8B8B"/>
</svg>
