<?xml version="1.0" encoding="UTF-8"?>
<svg width="155px" height="89px" viewBox="0 0 155 89" version="1.1" xmlns="http://www.w3.org/2000/svg" xmlns:xlink="http://www.w3.org/1999/xlink">
    <!-- Generator: Sketch 57.1 (83088) - https://sketch.com -->
    <title>icon_totalco</title>
    <desc>Created with Sketch.</desc>
    <g id="Page-1" stroke="none" stroke-width="1" fill="none" fill-rule="evenodd">
        <g id="icon_totalco" transform="translate(0.000000, 0.682000)" fill="#FFD34B">
            <path d="M122.6498,72.1257 L122.6498,74.3537 L113.3458,74.3537 C113.3738,71.4017 115.0728,70.2597 117.2458,68.8947 C118.3598,68.1707 119.8928,67.4737 119.9198,66.0257 C119.9198,65.0507 119.2508,64.2987 118.2208,64.2987 C116.6608,64.2987 116.1598,65.8027 116.2148,66.9167 L113.3738,66.9167 C113.3458,64.0477 114.9898,62.0697 118.4158,62.0697 C120.7278,62.0697 122.7618,63.3517 122.7618,65.8307 C122.7618,67.5857 121.7588,68.5607 120.5048,69.3957 C119.2508,70.2037 117.7748,70.8447 116.8278,72.1257 L122.6498,72.1257 Z M94.8558,66.8257 C84.7768,66.8257 78.8488,59.3007 78.8488,49.9067 C78.8488,40.2387 84.7768,32.7137 94.8558,32.7137 C104.9338,32.7137 110.8628,40.2387 110.8628,49.9067 C110.8628,59.3007 104.9338,66.8257 94.8558,66.8257 L94.8558,66.8257 Z M61.0648,66.8257 C50.9868,66.8257 45.0578,59.3007 45.0578,49.9067 C45.0578,40.2387 50.9868,32.7137 61.0648,32.7137 C68.2248,32.7137 74.2448,36.9097 75.1118,44.4337 L68.1798,44.4337 C67.7238,41.1967 64.6228,38.7337 61.0648,38.7337 C54.6358,38.7337 52.2178,44.2057 52.2178,49.9067 C52.2178,55.3337 54.6358,60.8057 61.0648,60.8057 C65.4438,60.8057 67.9068,57.7957 68.4538,53.5097 L75.3848,53.5097 C74.6558,61.6267 69.0468,66.8257 61.0648,66.8257 L61.0648,66.8257 Z M131.0988,39.8697 C130.7568,39.8697 130.4188,39.8757 130.0838,39.8927 C131.5288,34.0307 129.9608,27.5817 125.3798,23.0017 C120.7448,18.3667 114.1898,16.8157 108.2708,18.3527 C102.2198,7.5717 90.6808,0.2857 77.4378,0.2857 C64.1958,0.2857 52.6558,7.5717 46.6048,18.3527 C40.6858,16.8157 34.1338,18.3667 29.4988,23.0017 C24.9218,27.5787 23.3538,34.0257 24.7898,39.8867 C24.5118,39.8757 24.2308,39.8697 23.9498,39.8697 C10.8138,39.8697 0.1628,50.5177 0.1628,63.6577 C0.1628,76.7967 10.8138,87.4447 23.9498,87.4447 C25.3368,87.4447 26.6928,87.3277 28.0148,87.0947 C28.4668,87.3187 28.9778,87.4447 29.5168,87.4447 L131.0988,87.4447 C132.5118,87.4447 133.8988,87.3217 135.2458,87.0837 C146.4048,85.1227 154.8858,75.3807 154.8858,63.6577 C154.8858,50.5177 144.2348,39.8697 131.0988,39.8697 L131.0988,39.8697 Z" id="Fill-3"></path>
            <path d="M94.8557,38.7336 C88.4257,38.7336 86.0087,44.2066 86.0087,49.9066 C86.0087,55.3336 88.4257,60.8056 94.8557,60.8056 C101.2857,60.8056 103.7027,55.3336 103.7027,49.9066 C103.7027,44.2066 101.2857,38.7336 94.8557,38.7336" id="Fill-5"></path>
        </g>
    </g>
</svg>