<svg width="40" height="46" viewBox="0 0 40 46" fill="none" xmlns="http://www.w3.org/2000/svg">
<path d="M35.1667 11H30.8333C30.8333 4.93332 26.0667 0.166656 20 0.166656C13.9333 0.166656 9.16667 4.93332 9.16667 11H4.83333C2.45 11 0.5 12.95 0.5 15.3333V41.3333C0.5 43.7167 2.45 45.6667 4.83333 45.6667H35.1667C37.55 45.6667 39.5 43.7167 39.5 41.3333V15.3333C39.5 12.95 37.55 11 35.1667 11ZM20 4.49999C23.6833 4.49999 26.5 7.31666 26.5 11H13.5C13.5 7.31666 16.3167 4.49999 20 4.49999ZM35.1667 41.3333H4.83333V15.3333H35.1667V41.3333ZM20 24C16.3167 24 13.5 21.1833 13.5 17.5H9.16667C9.16667 23.5667 13.9333 28.3333 20 28.3333C26.0667 28.3333 30.8333 23.5667 30.8333 17.5H26.5C26.5 21.1833 23.6833 24 20 24Z" fill="#7197FE"/>
</svg>
