<svg width="21" height="22" viewBox="0 0 21 22" fill="none" xmlns="http://www.w3.org/2000/svg">
<path d="M5.5 0.999971C3.71 2.14997 2.5 4.17997 2.5 6.49997C2.5 8.81997 3.71 10.85 5.53 12C2.46 12 0 9.53997 0 6.49997C0 5.04128 0.579463 3.64233 1.61091 2.61088C2.64236 1.57943 4.04131 0.999971 5.5 0.999971ZM17.07 2.49997L18.5 3.92997L2.93 19.5L1.5 18.07L17.07 2.49997ZM10.89 4.92997L9.41 3.99997L7.97 4.99997L8.39 3.29997L7 2.23997L8.75 2.11997L9.33 0.469971L10 2.09997L11.73 2.12997L10.38 3.25997L10.89 4.92997ZM7.59 8.53997L6.43 7.80997L5.31 8.58997L5.65 7.26997L4.56 6.43997L5.92 6.34997L6.37 5.05997L6.88 6.32997L8.24 6.35997L7.19 7.22997L7.59 8.53997ZM17 12.5C17 13.9587 16.4205 15.3576 15.3891 16.3891C14.3576 17.4205 12.9587 18 11.5 18C10.28 18 9.15 17.6 8.24 16.93L15.93 9.23997C16.6 10.15 17 11.28 17 12.5ZM12.6 19.08L15.37 17.93L15.13 21.28L12.6 19.08ZM16.93 16.38L18.08 13.61L20.28 16.15L16.93 16.38ZM18.08 11.42L16.94 8.63997L20.28 8.87997L18.08 11.42ZM7.63 17.93L10.4 19.08L7.87 21.27L7.63 17.93Z" fill="#8B8B8B"/>
</svg>
