<svg width="13" height="13" viewBox="0 0 13 13" fill="none" xmlns="http://www.w3.org/2000/svg">
<path d="M5.875 8.375H7.125V9.625H5.875V8.375ZM5.875 3.375H7.125V7.125H5.875V3.375ZM6.5 0.25C3.04375 0.25 0.25 3.0625 0.25 6.5C0.25 8.1576 0.90848 9.74732 2.08058 10.9194C2.66095 11.4998 3.34994 11.9602 4.10823 12.2742C4.86651 12.5883 5.67924 12.75 6.5 12.75C8.1576 12.75 9.74732 12.0915 10.9194 10.9194C12.0915 9.74732 12.75 8.1576 12.75 6.5C12.75 5.67924 12.5883 4.86651 12.2742 4.10823C11.9602 3.34994 11.4998 2.66095 10.9194 2.08058C10.3391 1.50022 9.65006 1.03984 8.89177 0.725753C8.13349 0.411661 7.32076 0.25 6.5 0.25ZM6.5 11.5C5.17392 11.5 3.90215 10.9732 2.96447 10.0355C2.02678 9.09785 1.5 7.82608 1.5 6.5C1.5 5.17392 2.02678 3.90215 2.96447 2.96447C3.90215 2.02678 5.17392 1.5 6.5 1.5C7.82608 1.5 9.09785 2.02678 10.0355 2.96447C10.9732 3.90215 11.5 5.17392 11.5 6.5C11.5 7.82608 10.9732 9.09785 10.0355 10.0355C9.09785 10.9732 7.82608 11.5 6.5 11.5Z" fill="#FF6B93"/>
</svg>
