<svg width="19" height="22" viewBox="0 0 19 22" fill="none" xmlns="http://www.w3.org/2000/svg">
<path d="M14.3333 16.4167H4.58333V9.37501C4.58333 6.66667 6.75 4.50001 9.45833 4.50001C12.1667 4.50001 14.3333 6.66667 14.3333 9.37501V16.4167ZM16.5 15.3333V9.37501C16.5 6.04917 14.1817 3.26501 11.0833 2.52834V1.79167C11.0833 1.3607 10.9121 0.94737 10.6074 0.642623C10.3026 0.337877 9.88931 0.166672 9.45833 0.166672C9.02736 0.166672 8.61403 0.337877 8.30928 0.642623C8.00454 0.94737 7.83333 1.3607 7.83333 1.79167V2.52834C4.72417 3.26501 2.41667 6.04917 2.41667 9.37501V15.3333L0.25 17.5V18.5833H18.6667V17.5L16.5 15.3333ZM9.45833 21.8333C10.033 21.8333 10.5841 21.6051 10.9904 21.1987C11.3967 20.7924 11.625 20.2413 11.625 19.6667H7.29167C7.29167 20.2413 7.51994 20.7924 7.92627 21.1987C8.3326 21.6051 8.8837 21.8333 9.45833 21.8333Z" fill="#7197FE"/>
</svg>
