<svg width="18" height="18" viewBox="0 0 18 18" fill="none" xmlns="http://www.w3.org/2000/svg">
<path d="M12 11.25H6.75V9.75H12V11.25ZM14.25 8.25H6.75V6.75H14.25V8.25ZM14.25 5.25H6.75V3.75H14.25V5.25ZM2.25 3.75V15.75H14.25V17.25H2.25C1.85218 17.25 1.47064 17.092 1.18934 16.8107C0.908035 16.5294 0.75 16.1478 0.75 15.75V3.75H2.25ZM15.75 0.75C16.1478 0.75 16.5294 0.908035 16.8107 1.18934C17.092 1.47064 17.25 1.85218 17.25 2.25V12.75C17.25 13.5825 16.5825 14.25 15.75 14.25H5.25C4.85218 14.25 4.47064 14.092 4.18934 13.8107C3.90804 13.5294 3.75 13.1478 3.75 12.75V2.25C3.75 1.4175 4.4175 0.75 5.25 0.75H15.75ZM5.25 2.25V12.75H15.75V2.25H5.25Z" fill="#8B8B8B"/>
</svg>
