<svg width="14" height="14" viewBox="0 0 14 14" fill="none" xmlns="http://www.w3.org/2000/svg">
<path d="M11.708 2.29168C10.4997 1.08334 8.84134 0.333344 6.99967 0.333344C5.23156 0.333344 3.53587 1.03572 2.28563 2.28596C1.03539 3.53621 0.333008 5.2319 0.333008 7.00001C0.333008 8.76812 1.03539 10.4638 2.28563 11.7141C3.53587 12.9643 5.23156 13.6667 6.99967 13.6667C10.108 13.6667 12.6997 11.5417 13.4413 8.66668H11.708C11.0247 10.6083 9.17467 12 6.99967 12C5.67359 12 4.40182 11.4732 3.46414 10.5355C2.52646 9.59786 1.99967 8.32609 1.99967 7.00001C1.99967 5.67393 2.52646 4.40216 3.46414 3.46448C4.40182 2.52679 5.67359 2.00001 6.99967 2.00001C8.38301 2.00001 9.61634 2.57501 10.5163 3.48334L7.83301 6.16668H13.6663V0.333344L11.708 2.29168Z" fill="#7197FE"/>
</svg>
