<svg width="18" height="16" viewBox="0 0 18 16" fill="none" xmlns="http://www.w3.org/2000/svg">
<path d="M17.25 7.25H13.5C13.3011 7.25 13.1103 7.32902 12.9697 7.46967C12.829 7.61032 12.75 7.80109 12.75 8V14.75C12.75 14.9489 12.829 15.1397 12.9697 15.2803C13.1103 15.421 13.3011 15.5 13.5 15.5H17.25C17.4489 15.5 17.6397 15.421 17.7803 15.2803C17.921 15.1397 18 14.9489 18 14.75V8C18 7.80109 17.921 7.61032 17.7803 7.46967C17.6397 7.32902 17.4489 7.25 17.25 7.25ZM17.25 14H13.5V8.75H17.25V14ZM15 0.5H1.5C0.6675 0.5 0 1.1675 0 2V11C0 11.3978 0.158035 11.7794 0.43934 12.0607C0.720644 12.342 1.10218 12.5 1.5 12.5H6.75V14H5.25V15.5H11.25V14H9.75V12.5H11.25V11H1.5V2H15V5.75H16.5V2C16.5 1.1675 15.825 0.5 15 0.5ZM8.9775 5.75L8.25 3.5L7.5225 5.75H5.25L7.1025 7.07L6.3975 9.2525L8.25 7.9025L10.1025 9.2525L9.3975 7.07L11.25 5.75H8.9775Z" fill="#8B8B8B"/>
</svg>
