<svg width="12" height="14" viewBox="0 0 12 14" fill="none" xmlns="http://www.w3.org/2000/svg">
<path d="M8.25002 12.91C8.28002 13.135 8.20502 13.375 8.03252 13.5325C7.74002 13.825 7.26752 13.825 6.97502 13.5325L3.96751 10.525C3.79502 10.3525 3.72002 10.12 3.75002 9.9025V6.0625L0.157515 1.465C-0.0974847 1.1425 -0.0374846 0.67 0.285015 0.415C0.427515 0.31 0.585015 0.25 0.750015 0.25H11.25C11.415 0.25 11.5725 0.31 11.715 0.415C12.0375 0.67 12.0975 1.1425 11.8425 1.465L8.25002 6.0625V12.91ZM2.28002 1.75L5.25002 5.545V9.685L6.75002 11.185V5.5375L9.72001 1.75H2.28002Z" fill="#8B8B8B"/>
</svg>
