<svg width="12" height="13" viewBox="0 0 12 13" fill="none" xmlns="http://www.w3.org/2000/svg">
<path d="M9 9.625H3.375V5.5625C3.375 4 4.625 2.75 6.1875 2.75C7.75 2.75 9 4 9 5.5625V9.625ZM10.25 9V5.5625C10.25 3.64375 8.9125 2.0375 7.125 1.6125V1.1875C7.125 0.93886 7.02623 0.700403 6.85041 0.524587C6.6746 0.348772 6.43614 0.25 6.1875 0.25C5.93886 0.25 5.7004 0.348772 5.52459 0.524587C5.34877 0.700403 5.25 0.93886 5.25 1.1875V1.6125C3.45625 2.0375 2.125 3.64375 2.125 5.5625V9L0.875 10.25V10.875H11.5V10.25L10.25 9ZM6.1875 12.75C6.51902 12.75 6.83696 12.6183 7.07138 12.3839C7.3058 12.1495 7.4375 11.8315 7.4375 11.5H4.9375C4.9375 11.8315 5.0692 12.1495 5.30362 12.3839C5.53804 12.6183 5.85598 12.75 6.1875 12.75Z" fill="#FFB946"/>
</svg>
