<svg width="20" height="20" viewBox="0 0 20 20" fill="none" xmlns="http://www.w3.org/2000/svg">
<path d="M11 0.0499878V3.07999C14.39 3.56999 17 6.46999 17 9.99999C17 10.9 16.82 11.75 16.5 12.54L19.12 14.07C19.68 12.83 20 11.45 20 9.99999C20 4.81999 16.05 0.549988 11 0.0499878ZM10 17C8.14348 17 6.36301 16.2625 5.05025 14.9497C3.7375 13.637 3 11.8565 3 9.99999C3 6.46999 5.61 3.56999 9 3.07999V0.0499878C3.94 0.549988 0 4.80999 0 9.99999C0 12.6522 1.05357 15.1957 2.92893 17.0711C3.85752 17.9996 4.95991 18.7362 6.17317 19.2388C7.38642 19.7413 8.68678 20 10 20C13.3 20 16.23 18.39 18.05 15.91L15.45 14.38C14.17 16 12.21 17 10 17Z" fill="#8B8B8B"/>
</svg>
