<svg width="16" height="16" viewBox="0 0 16 16" fill="none" xmlns="http://www.w3.org/2000/svg">
<path d="M10.25 13C10.25 12.8011 10.171 12.6103 10.0303 12.4697C9.88968 12.329 9.69891 12.25 9.5 12.25H8.75V10.75H11.75C12.1478 10.75 12.5294 10.592 12.8107 10.3107C13.092 10.0294 13.25 9.64782 13.25 9.25V1.75C13.25 1.35218 13.092 0.970644 12.8107 0.68934C12.5294 0.408035 12.1478 0.25 11.75 0.25H4.25C3.85218 0.25 3.47064 0.408035 3.18934 0.68934C2.90804 0.970644 2.75 1.35218 2.75 1.75V9.25C2.75 9.64782 2.90804 10.0294 3.18934 10.3107C3.47064 10.592 3.85218 10.75 4.25 10.75H7.25V12.25H6.5C6.30109 12.25 6.11032 12.329 5.96967 12.4697C5.82902 12.6103 5.75 12.8011 5.75 13H0.5V14.5H5.75C5.75 14.6989 5.82902 14.8897 5.96967 15.0303C6.11032 15.171 6.30109 15.25 6.5 15.25H9.5C9.69891 15.25 9.88968 15.171 10.0303 15.0303C10.171 14.8897 10.25 14.6989 10.25 14.5H15.5V13H10.25ZM4.25 9.25V1.75H11.75V9.25H4.25ZM6.5 8.5V2.5L10.25 5.5L6.5 8.5Z" fill="#8B8B8B"/>
</svg>
