<svg width="175" height="63" viewBox="0 0 175 63" fill="none" xmlns="http://www.w3.org/2000/svg">
<path d="M69.856 37.592H62.872L61.672 41H58.816L64.792 24.296H67.96L73.936 41H71.056L69.856 37.592ZM69.088 35.36L66.376 27.608L63.64 35.36H69.088ZM75.6224 34.328C75.6224 33 75.8944 31.824 76.4384 30.8C76.9984 29.776 77.7504 28.984 78.6944 28.424C79.6544 27.848 80.7184 27.56 81.8864 27.56C82.7504 27.56 83.5984 27.752 84.4304 28.136C85.2784 28.504 85.9504 29 86.4464 29.624V23.24H89.2064V41H86.4464V39.008C85.9984 39.648 85.3744 40.176 84.5744 40.592C83.7904 41.008 82.8864 41.216 81.8624 41.216C80.7104 41.216 79.6544 40.928 78.6944 40.352C77.7504 39.76 76.9984 38.944 76.4384 37.904C75.8944 36.848 75.6224 35.656 75.6224 34.328ZM86.4464 34.376C86.4464 33.464 86.2544 32.672 85.8704 32C85.5024 31.328 85.0144 30.816 84.4064 30.464C83.7984 30.112 83.1424 29.936 82.4384 29.936C81.7344 29.936 81.0784 30.112 80.4704 30.464C79.8624 30.8 79.3664 31.304 78.9824 31.976C78.6144 32.632 78.4304 33.416 78.4304 34.328C78.4304 35.24 78.6144 36.04 78.9824 36.728C79.3664 37.416 79.8624 37.944 80.4704 38.312C81.0944 38.664 81.7504 38.84 82.4384 38.84C83.1424 38.84 83.7984 38.664 84.4064 38.312C85.0144 37.96 85.5024 37.448 85.8704 36.776C86.2544 36.088 86.4464 35.288 86.4464 34.376ZM108.808 27.56C109.848 27.56 110.776 27.776 111.592 28.208C112.424 28.64 113.072 29.28 113.536 30.128C114.016 30.976 114.256 32 114.256 33.2V41H111.544V33.608C111.544 32.424 111.248 31.52 110.656 30.896C110.064 30.256 109.256 29.936 108.232 29.936C107.208 29.936 106.392 30.256 105.784 30.896C105.192 31.52 104.896 32.424 104.896 33.608V41H102.184V33.608C102.184 32.424 101.888 31.52 101.296 30.896C100.704 30.256 99.896 29.936 98.872 29.936C97.848 29.936 97.032 30.256 96.424 30.896C95.832 31.52 95.536 32.424 95.536 33.608V41H92.8V27.776H95.536V29.288C95.984 28.744 96.552 28.32 97.24 28.016C97.928 27.712 98.664 27.56 99.448 27.56C100.504 27.56 101.448 27.784 102.28 28.232C103.112 28.68 103.752 29.328 104.2 30.176C104.6 29.376 105.224 28.744 106.072 28.28C106.92 27.8 107.832 27.56 108.808 27.56ZM119.13 26.024C118.634 26.024 118.218 25.856 117.882 25.52C117.546 25.184 117.378 24.768 117.378 24.272C117.378 23.776 117.546 23.36 117.882 23.024C118.218 22.688 118.634 22.52 119.13 22.52C119.61 22.52 120.018 22.688 120.354 23.024C120.69 23.36 120.858 23.776 120.858 24.272C120.858 24.768 120.69 25.184 120.354 25.52C120.018 25.856 119.61 26.024 119.13 26.024ZM120.474 27.776V41H117.738V27.776H120.474ZM130.738 27.56C131.778 27.56 132.706 27.776 133.522 28.208C134.354 28.64 135.002 29.28 135.466 30.128C135.93 30.976 136.162 32 136.162 33.2V41H133.45V33.608C133.45 32.424 133.154 31.52 132.562 30.896C131.97 30.256 131.162 29.936 130.138 29.936C129.114 29.936 128.298 30.256 127.69 30.896C127.098 31.52 126.802 32.424 126.802 33.608V41H124.066V27.776H126.802V29.288C127.25 28.744 127.818 28.32 128.506 28.016C129.21 27.712 129.954 27.56 130.738 27.56Z" fill="white"/>
<path d="M142.388 38.792H148.028V41H139.652V24.32H142.388V38.792ZM161.092 24.32V26.552H156.652V41H153.916V26.552H149.452V24.32H161.092ZM166.599 26.528V31.424H172.359V33.656H166.599V38.768H173.079V41H163.863V24.296H173.079V26.528H166.599Z" fill="#7197FE"/>
<g opacity="0.1">
<path opacity="0.1" d="M62 60.5557V61.9951H60.5605" stroke="#20263C" stroke-miterlimit="10"/>
<path opacity="0.1" d="M57.792 61.9952H3.82617" stroke="#20263C" stroke-miterlimit="10" stroke-dasharray="5.77 5.77"/>
<path opacity="0.1" d="M2.43947 61.9951H1V60.5557" stroke="#20263C" stroke-miterlimit="10"/>
<path opacity="0.1" d="M1 57.7872V3.82141" stroke="#20263C" stroke-miterlimit="10" stroke-dasharray="5.77 5.77"/>
<path opacity="0.1" d="M1 2.43947V1H2.43947" stroke="#20263C" stroke-miterlimit="10"/>
<path opacity="0.1" d="M5.20801 1H59.1738" stroke="#20263C" stroke-miterlimit="10" stroke-dasharray="5.77 5.77"/>
<path opacity="0.1" d="M60.5605 1H62V2.43947" stroke="#20263C" stroke-miterlimit="10"/>
<path opacity="0.1" d="M62 5.20325V59.1738" stroke="#20263C" stroke-miterlimit="10" stroke-dasharray="5.77 5.77"/>
</g>
<path d="M21.1526 46.1034L31.4716 39.3126L41.785 46.1034L31.4716 14.4351L21.1526 46.1034Z" fill="#7197FE"/>
<path d="M26.4306 24.5114L14.9148 28.5823L23.9384 31.7087L26.4306 24.5114Z" fill="white"/>
<path d="M48.0229 28.5823L36.5071 24.5114L38.9992 31.7087L48.0229 28.5823Z" fill="white"/>
</svg>
