<?xml version="1.0" encoding="UTF-8"?>
<svg width="279px" height="94px" viewBox="0 0 279 94" version="1.1" xmlns="http://www.w3.org/2000/svg" xmlns:xlink="http://www.w3.org/1999/xlink">
    <!-- Generator: Sketch 57.1 (83088) - https://sketch.com -->
    <title>Group 60</title>
    <desc>Created with Sketch.</desc>
    <defs>
        <polygon id="path-1" points="0.9626 0.5864 78.3756 0.5864 78.3756 78 0.9626 78"></polygon>
        <polygon id="path-3" points="0 134.505 341.966 134.505 341.966 0 0 0"></polygon>
    </defs>
    <g id="Page-1" stroke="none" stroke-width="1" fill="none" fill-rule="evenodd">
        <g id="Group-60" transform="translate(-31.000000, -41.000000)">
            <g id="Group-3" transform="translate(31.000000, 56.505000)">
                <mask id="mask-2" fill="white">
                    <use xlink:href="#path-1"></use>
                </mask>
                <g id="Clip-2"></g>
                <path d="M78.3756,39.2934 C78.3756,17.9164 61.0456,0.5864 39.6696,0.5864 C18.2916,0.5864 0.9626,17.9164 0.9626,39.2934 C0.9626,60.6704 18.2916,78.0004 39.6696,78.0004 C61.0456,78.0004 78.3756,60.6704 78.3756,39.2934" id="Fill-1" fill="#FFD34B" mask="url(#mask-2)"></path>
            </g>
            <g id="Group-28" transform="translate(34.000000, 59.505000)" fill="#FFFFFF">
                <path d="M36.6494,45.9868 C31.3044,45.9868 26.9564,41.6388 26.9564,36.2938 C26.9564,35.5468 27.5614,34.9418 28.3084,34.9418 C29.0544,34.9418 29.6594,35.5468 29.6594,36.2938 C29.6594,40.1478 32.7954,43.2838 36.6494,43.2838 C38.8854,43.2838 40.9344,42.2518 42.2694,40.4518 C42.7144,39.8538 43.5614,39.7278 44.1604,40.1728 C44.7594,40.6178 44.8854,41.4638 44.4394,42.0638 C42.6164,44.5198 39.7044,45.9868 36.6494,45.9868" id="Fill-4"></path>
                <path d="M42.5873,31.7869 C42.2383,31.7869 41.8893,31.6519 41.6253,31.3839 C40.3013,30.0419 38.5343,29.3029 36.6493,29.3029 C34.7833,29.3029 33.0283,30.0299 31.7063,31.3509 C31.1793,31.8789 30.3233,31.8789 29.7953,31.3509 C29.2673,30.8239 29.2673,29.9679 29.7953,29.4399 C31.6273,27.6079 34.0613,26.5999 36.6493,26.5999 C39.2633,26.5999 41.7133,27.6249 43.5493,29.4869 C44.0733,30.0179 44.0673,30.8739 43.5363,31.3979 C43.2733,31.6579 42.9293,31.7869 42.5873,31.7869" id="Fill-6"></path>
                <path d="M36.6494,52.242 C35.9034,52.242 35.2984,51.637 35.2984,50.891 C35.2984,50.144 35.9034,49.539 36.6494,49.539 C43.9534,49.539 49.8954,43.597 49.8954,36.293 C49.8954,28.99 43.9534,23.048 36.6494,23.048 C33.6844,23.048 30.8804,24.007 28.5414,25.819 C27.9524,26.275 27.1034,26.169 26.6454,25.578 C26.1874,24.988 26.2964,24.139 26.8864,23.682 C29.7034,21.499 33.0794,20.346 36.6494,20.346 C45.4434,20.346 52.5984,27.5 52.5984,36.293 C52.5984,45.087 45.4434,52.242 36.6494,52.242" id="Fill-8"></path>
                <path d="M25.2093,46.7107 C24.8113,46.7107 24.4163,46.5347 24.1503,46.1997 C21.8933,43.3547 20.7013,39.9297 20.7013,36.2937 C20.7013,35.2107 20.8093,34.1307 21.0253,33.0807 C21.1753,32.3487 21.8863,31.8757 22.6213,32.0287 C23.3523,32.1787 23.8233,32.8927 23.6733,33.6237 C23.4943,34.4947 23.4033,35.3937 23.4033,36.2937 C23.4033,39.3127 24.3943,42.1577 26.2673,44.5187 C26.7313,45.1037 26.6333,45.9547 26.0483,46.4177 C25.8003,46.6147 25.5033,46.7107 25.2093,46.7107" id="Fill-10"></path>
                <path d="M51.8483,52.9224 C51.5013,52.9224 51.1543,52.7894 50.8903,52.5234 C50.3633,51.9954 50.3663,51.1394 50.8953,50.6124 C54.7323,46.7944 56.8463,41.7094 56.8463,36.2934 C56.8463,25.1564 47.7863,16.0974 36.6493,16.0974 C33.2353,16.0974 29.8603,16.9654 26.8883,18.6084 C26.2363,18.9704 25.4123,18.7344 25.0513,18.0804 C24.6903,17.4264 24.9273,16.6044 25.5803,16.2434 C28.9513,14.3794 32.7793,13.3944 36.6493,13.3944 C49.2763,13.3944 59.5493,23.6664 59.5493,36.2934 C59.5493,42.4334 57.1533,48.1994 52.8013,52.5294 C52.5383,52.7914 52.1923,52.9224 51.8483,52.9224" id="Fill-12"></path>
                <path d="M28.262,57.5014 C28.087,57.5014 27.908,57.4664 27.736,57.3934 C19.241,53.8004 13.751,45.5184 13.751,36.2934 C13.751,31.1694 15.404,26.3264 18.532,22.2864 C18.988,21.6964 19.838,21.5884 20.428,22.0464 C21.018,22.5024 21.126,23.3514 20.668,23.9424 C17.911,27.5034 16.454,31.7744 16.454,36.2934 C16.454,44.4304 21.295,51.7354 28.789,54.9044 C29.476,55.1954 29.798,55.9884 29.507,56.6754 C29.29,57.1914 28.789,57.5014 28.262,57.5014" id="Fill-14"></path>
                <path d="M36.6349,65.4349 C32.5009,65.4349 28.3639,64.5639 24.5259,62.8089 C23.8469,62.4979 23.5479,61.6969 23.8589,61.0179 C24.1689,60.3389 24.9709,60.0399 25.6499,60.3499 C33.2799,63.8399 42.2139,63.4799 49.5519,59.3879 C50.2039,59.0239 51.0279,59.2579 51.3899,59.9099 C51.7539,60.5619 51.5199,61.3849 50.8679,61.7489 C46.4729,64.1989 41.5569,65.4349 36.6349,65.4349" id="Fill-16"></path>
                <path d="M11.9439,50.3996 C11.4539,50.3996 10.9809,50.1326 10.7419,49.6676 C6.6089,41.6536 6.3879,32.3606 10.1339,24.1706 C16.8189,9.5506 34.1509,3.0926 48.7729,9.7776 C49.4519,10.0876 49.7509,10.8896 49.4409,11.5686 C49.1289,12.2476 48.3269,12.5456 47.6489,12.2356 C34.3879,6.1726 18.6579,12.0286 12.5919,25.2946 C9.1929,32.7246 9.3939,41.1566 13.1439,48.4286 C13.4859,49.0926 13.2259,49.9076 12.5619,50.2496 C12.3639,50.3516 12.1529,50.3996 11.9439,50.3996" id="Fill-18"></path>
                <path d="M50.2111,61.9195 C49.7361,61.9195 49.2771,61.6695 49.0291,61.2255 C48.6651,60.5735 48.9001,59.7505 49.5521,59.3875 C54.4891,56.6365 58.3461,52.4545 60.7061,47.2925 C61.0171,46.6135 61.8191,46.3145 62.4981,46.6245 C63.1761,46.9355 63.4751,47.7375 63.1651,48.4165 C60.5631,54.1065 56.3111,58.7165 50.8681,61.7485 C50.6591,61.8645 50.4331,61.9195 50.2111,61.9195" id="Fill-20"></path>
                <path d="M64.6459,37.4595 C63.9129,37.4595 63.3119,36.8735 63.2949,36.1375 C63.1719,30.4865 61.2789,25.1205 57.8209,20.6205 C57.3659,20.0285 57.4769,19.1805 58.0689,18.7255 C58.6599,18.2705 59.5089,18.3805 59.9639,18.9735 C63.7749,23.9325 65.8619,29.8485 65.9979,36.0785 C66.0139,36.8245 65.4229,37.4435 64.6759,37.4595 L64.6459,37.4595 Z" id="Fill-22"></path>
                <path d="M36.6494,72.3341 C27.0234,72.3341 17.9724,68.5851 11.1654,61.7781 C10.6374,61.2501 10.6374,60.3951 11.1654,59.8671 C11.6934,59.3391 12.5484,59.3391 13.0764,59.8671 C19.3734,66.1631 27.7454,69.6311 36.6494,69.6311 C55.0324,69.6311 69.9874,54.6761 69.9874,36.2931 C69.9874,17.9111 55.0324,2.9561 36.6494,2.9561 C35.9034,2.9561 35.2984,2.3501 35.2984,1.6041 C35.2984,0.8581 35.9034,0.2531 36.6494,0.2531 C56.5224,0.2531 72.6904,16.4201 72.6904,36.2931 C72.6904,56.1661 56.5224,72.3341 36.6494,72.3341" id="Fill-24"></path>
                <path d="M2.665,44.6366 C2.036,44.6366 1.473,44.1956 1.343,43.5566 C0.856,41.1796 0.609,38.7356 0.609,36.2936 C0.609,23.0316 7.864,10.8746 19.542,4.5646 C20.201,4.2096 21.019,4.4556 21.374,5.1106 C21.728,5.7686 21.484,6.5876 20.828,6.9426 C10.023,12.7796 3.312,24.0266 3.312,36.2936 C3.312,38.5546 3.54,40.8146 3.99,43.0136 C4.14,43.7446 3.669,44.4586 2.938,44.6086 C2.846,44.6276 2.755,44.6366 2.665,44.6366" id="Fill-26"></path>
            </g>
            <path d="M72.8825,94.1599 C70.6055,93.4119 68.7775,92.3469 67.3965,90.9659 C66.0165,89.5849 65.3255,87.9189 65.3255,85.9649 C65.3255,84.0569 66.0415,82.3789 67.4735,80.9319 C68.9055,79.4859 70.6865,78.7619 72.8155,78.7619 C74.9155,78.7619 76.7145,79.5039 78.2125,80.9869 C78.9905,81.7509 79.6015,82.8229 80.0415,84.2029 L76.4725,85.5909 C76.0325,84.4009 75.6355,83.6309 75.2835,83.2779 C74.5635,82.5439 73.7415,82.1769 72.8155,82.1769 C71.9045,82.1769 71.0945,82.5319 70.3825,83.2449 C69.6695,83.9579 69.3125,84.8649 69.3125,85.9649 C69.3125,87.0529 69.6805,87.9779 70.4155,88.7409 C71.1785,89.4759 72.2205,90.1509 73.5425,90.7679 C76.0685,91.5899 78.1835,92.8529 79.8865,94.5569 C81.8405,96.4949 82.8165,98.7859 82.8165,101.4299 C82.8165,104.0729 81.8505,106.3609 79.9195,108.2909 C77.9885,110.2229 75.6205,111.1879 72.8155,111.1879 C69.9965,111.1879 67.6095,110.1969 65.6575,108.2149 C64.1285,106.7019 63.1895,104.7419 62.8375,102.3329 L66.6695,100.9449 C66.9055,103.2509 67.5585,104.9319 68.6305,105.9889 C69.8045,107.1649 71.1995,107.7519 72.8155,107.7519 C74.4455,107.7519 75.8665,107.1459 77.0785,105.9349 C78.2895,104.7219 78.8955,103.2219 78.8955,101.4299 C78.8955,99.6389 78.3005,98.1469 77.1115,96.9579 C75.9065,95.7689 74.4965,94.8359 72.8825,94.1599" id="Fill-29" fill="#4A7750"></path>
            <path d="M72.8825,94.1599 C70.6055,93.4119 68.7775,92.3469 67.3965,90.9659 C66.0165,89.5849 65.3255,87.9189 65.3255,85.9649 C65.3255,84.0569 66.0415,82.3789 67.4735,80.9319 C68.9055,79.4859 70.6865,78.7619 72.8155,78.7619 C74.9155,78.7619 76.7145,79.5039 78.2125,80.9869 C78.9905,81.7509 79.6015,82.8229 80.0415,84.2029 L76.4725,85.5909 C76.0325,84.4009 75.6355,83.6309 75.2835,83.2779 C74.5635,82.5439 73.7415,82.1769 72.8155,82.1769 C71.9045,82.1769 71.0945,82.5319 70.3825,83.2449 C69.6695,83.9579 69.3125,84.8649 69.3125,85.9649 C69.3125,87.0529 69.6805,87.9779 70.4155,88.7409 C71.1785,89.4759 72.2205,90.1509 73.5425,90.7679 C76.0685,91.5899 78.1835,92.8529 79.8865,94.5569 C81.8405,96.4949 82.8165,98.7859 82.8165,101.4299 C82.8165,104.0729 81.8505,106.3609 79.9195,108.2909 C77.9885,110.2229 75.6205,111.1879 72.8155,111.1879 C69.9965,111.1879 67.6095,110.1969 65.6575,108.2149 C64.1285,106.7019 63.1895,104.7419 62.8375,102.3329 L66.6695,100.9449 C66.9055,103.2509 67.5585,104.9319 68.6305,105.9889 C69.8045,107.1649 71.1995,107.7519 72.8155,107.7519 C74.4455,107.7519 75.8665,107.1459 77.0785,105.9349 C78.2895,104.7219 78.8955,103.2219 78.8955,101.4299 C78.8955,99.6389 78.3005,98.1469 77.1115,96.9579 C75.9065,95.7689 74.4965,94.8359 72.8825,94.1599 Z" id="Stroke-31" stroke="#4A7750" stroke-width="2"></path>
            <path d="M106.2031,82.1767 C102.8241,82.1767 99.9031,83.4137 97.4351,85.8887 C94.9681,88.3637 93.7351,91.3777 93.7351,94.9317 C93.7351,98.5157 94.9681,101.5407 97.4351,104.0067 C99.9031,106.4747 102.8241,107.7077 106.2031,107.7077 C109.5961,107.7077 112.5261,106.4747 114.9931,104.0067 C117.4601,101.5407 118.6941,98.5157 118.6941,94.9317 C118.6941,91.3777 117.4601,88.3637 114.9931,85.8887 C112.5261,83.4137 109.5961,82.1767 106.2031,82.1767 M117.9121,83.4987 C121.1051,86.7007 122.7021,90.5107 122.7021,94.9317 C122.7021,99.3807 121.1051,103.2037 117.9121,106.3977 C114.7161,109.5917 110.8141,111.1877 106.2031,111.1877 C101.6061,111.1877 97.7111,109.5917 94.5171,106.3977 C91.3221,103.2037 89.7251,99.3807 89.7251,94.9317 C89.7251,90.5107 91.3221,86.7007 94.5171,83.4987 C97.7111,80.2977 101.6061,78.6957 106.2031,78.6957 C110.8141,78.6957 114.7161,80.2977 117.9121,83.4987" id="Fill-33" fill="#4A7750"></path>
            <path d="M106.2031,82.1767 C102.8241,82.1767 99.9031,83.4137 97.4351,85.8887 C94.9681,88.3637 93.7351,91.3777 93.7351,94.9317 C93.7351,98.5157 94.9681,101.5407 97.4351,104.0067 C99.9031,106.4747 102.8241,107.7077 106.2031,107.7077 C109.5961,107.7077 112.5261,106.4747 114.9931,104.0067 C117.4601,101.5407 118.6941,98.5157 118.6941,94.9317 C118.6941,91.3777 117.4601,88.3637 114.9931,85.8887 C112.5261,83.4137 109.5961,82.1767 106.2031,82.1767 Z M117.9121,83.4987 C121.1051,86.7007 122.7021,90.5107 122.7021,94.9317 C122.7021,99.3807 121.1051,103.2037 117.9121,106.3977 C114.7161,109.5917 110.8141,111.1877 106.2031,111.1877 C101.6061,111.1877 97.7111,109.5917 94.5171,106.3977 C91.3221,103.2037 89.7251,99.3807 89.7251,94.9317 C89.7251,90.5107 91.3221,86.7007 94.5171,83.4987 C97.7111,80.2977 101.6061,78.6957 106.2031,78.6957 C110.8141,78.6957 114.7161,80.2977 117.9121,83.4987 Z" id="Stroke-35" stroke="#4A7750" stroke-width="2"></path>
            <polygon id="Fill-37" fill="#4A7750" points="130.8671 110.8357 130.8671 79.1367 134.8541 79.1367 134.8541 107.3777 146.2431 107.3777 146.2431 110.8357"></polygon>
            <polygon id="Stroke-39" stroke="#4A7750" stroke-width="2" points="130.8671 110.8357 130.8671 79.1367 134.8541 79.1367 134.8541 107.3777 146.2431 107.3777 146.2431 110.8357"></polygon>
            <path d="M168.0871,94.2258 L165.0471,85.8118 L161.9841,94.2258 L168.0871,94.2258 Z M166.7881,79.1368 L178.2641,110.8358 L174.1231,110.8358 L169.3431,97.6628 L160.7291,97.6628 L155.8621,110.8358 L151.6981,110.8358 L163.3281,79.1368 L166.7881,79.1368 Z" id="Fill-41" fill="#4A7750"></path>
            <path d="M168.0871,94.2258 L165.0471,85.8118 L161.9841,94.2258 L168.0871,94.2258 Z M166.7881,79.1368 L178.2641,110.8358 L174.1231,110.8358 L169.3431,97.6628 L160.7291,97.6628 L155.8621,110.8358 L151.6981,110.8358 L163.3281,79.1368 L166.7881,79.1368 Z" id="Stroke-43" stroke="#4A7750" stroke-width="2"></path>
            <path d="M189.1156,82.6168 L189.1156,96.9808 L193.0376,96.9808 C194.8876,96.9808 196.5016,96.2938 197.8836,94.9198 C199.2636,93.5478 199.9536,91.8328 199.9536,89.7768 C199.9536,87.7348 199.2636,86.0308 197.8836,84.6658 C196.5016,83.3008 194.8876,82.6168 193.0376,82.6168 L189.1156,82.6168 Z M192.8386,100.4608 L189.1156,100.4608 L189.1156,110.8358 L185.1286,110.8358 L185.1286,79.1368 L194.2046,79.1368 C196.8476,79.4888 199.0566,80.5618 200.8346,82.3528 C202.9066,84.4238 203.9406,86.8988 203.9406,89.7768 C203.9406,92.6698 202.8756,95.1818 200.7466,97.3098 C199.3366,98.7358 198.0876,99.5788 197.0026,99.8438 L204.1176,110.8358 L199.5126,110.8358 L192.8386,100.4608 Z" id="Fill-45" fill="#4A7750"></path>
            <path d="M189.1156,82.6168 L189.1156,96.9808 L193.0376,96.9808 C194.8876,96.9808 196.5016,96.2938 197.8836,94.9198 C199.2636,93.5478 199.9536,91.8328 199.9536,89.7768 C199.9536,87.7348 199.2636,86.0308 197.8836,84.6658 C196.5016,83.3008 194.8876,82.6168 193.0376,82.6168 L189.1156,82.6168 Z M192.8386,100.4608 L189.1156,100.4608 L189.1156,110.8358 L185.1286,110.8358 L185.1286,79.1368 L194.2046,79.1368 C196.8476,79.4888 199.0566,80.5618 200.8346,82.3528 C202.9066,84.4238 203.9406,86.8988 203.9406,89.7768 C203.9406,92.6698 202.8756,95.1818 200.7466,97.3098 C199.3366,98.7358 198.0876,99.5788 197.0026,99.8438 L204.1176,110.8358 L199.5126,110.8358 L192.8386,100.4608 Z" id="Stroke-47" stroke="#4A7750" stroke-width="2"></path>
            <polygon id="Fill-49" fill="#FFFFFF" points="235.4938 79.1365 227.1228 91.2525 240.8238 110.8355 236.1758 110.8355 224.7648 94.5125 222.6948 97.4865 222.6948 110.8355 218.7068 110.8355 218.7068 79.1365 222.6948 79.1365 222.6948 90.8555 230.8668 79.1365"></polygon>
            <polygon id="Stroke-51" stroke="#FFFFFF" stroke-width="2" points="235.4938 79.1365 227.1228 91.2525 240.8238 110.8355 236.1758 110.8355 224.7648 94.5125 222.6948 97.4865 222.6948 110.8355 218.7068 110.8355 218.7068 79.1365 222.6948 79.1365 222.6948 90.8555 230.8668 79.1365"></polygon>
            <mask id="mask-4" fill="white">
                <use xlink:href="#path-3"></use>
            </mask>
            <g id="Clip-54"></g>
            <polygon id="Fill-53" fill="#FFFFFF" mask="url(#mask-4)" points="247.534 110.836 251.522 110.836 251.522 79.137 247.534 79.137"></polygon>
            <polygon id="Stroke-55" stroke="#FFFFFF" stroke-width="2" mask="url(#mask-4)" points="247.534 110.836 251.522 110.836 251.522 79.137 247.534 79.137"></polygon>
            <polygon id="Fill-56" fill="#FFFFFF" mask="url(#mask-4)" points="270.7881 82.595 270.7881 110.836 266.8231 110.836 266.8231 82.595 259.2451 82.595 259.2451 79.136 278.3441 79.136 278.3441 82.595"></polygon>
            <polygon id="Stroke-57" stroke="#FFFFFF" stroke-width="2" mask="url(#mask-4)" points="270.7881 82.595 270.7881 110.836 266.8231 110.836 266.8231 82.595 259.2451 82.595 259.2451 79.136 278.3441 79.136 278.3441 82.595"></polygon>
            <path d="M298.1399,94.2258 L295.0999,85.8118 L292.0379,94.2258 L298.1399,94.2258 Z M296.8389,79.1368 L308.3169,110.8358 L304.1749,110.8358 L299.3949,97.6628 L290.7819,97.6628 L285.9129,110.8358 L281.7509,110.8358 L293.3809,79.1368 L296.8389,79.1368 Z" id="Fill-58" fill="#FFFFFF" mask="url(#mask-4)"></path>
            <path d="M298.1399,94.2258 L295.0999,85.8118 L292.0379,94.2258 L298.1399,94.2258 Z M296.8389,79.1368 L308.3169,110.8358 L304.1749,110.8358 L299.3949,97.6628 L290.7819,97.6628 L285.9129,110.8358 L281.7509,110.8358 L293.3809,79.1368 L296.8389,79.1368 Z" id="Stroke-59" stroke="#FFFFFF" stroke-width="2" mask="url(#mask-4)"></path>
            <text id="POWERED-BY" mask="url(#mask-4)" font-family="LucidaGrande, Lucida Grande" font-size="9" font-weight="normal" letter-spacing="0.52" fill="#231F20">
                <tspan x="125.0156" y="48.0103906">POWERED </tspan>
                <tspan x="173.876772" y="48.0103906" letter-spacing="0.385">B</tspan>
                <tspan x="179.43853" y="48.0103906">Y</tspan>
            </text>
        </g>
    </g>
</svg>