<svg width="19" height="19" viewBox="0 0 19 19" fill="none" xmlns="http://www.w3.org/2000/svg">
<path d="M9.5 16.5C7.64348 16.5 5.86301 15.7625 4.55025 14.4497C3.2375 13.137 2.5 11.3565 2.5 9.5C2.5 7.64348 3.2375 5.86301 4.55025 4.55025C5.86301 3.2375 7.64348 2.5 9.5 2.5C11.3565 2.5 13.137 3.2375 14.4497 4.55025C15.7625 5.86301 16.5 7.64348 16.5 9.5C16.5 11.3565 15.7625 13.137 14.4497 14.4497C13.137 15.7625 11.3565 16.5 9.5 16.5ZM9.5 0.75C8.35093 0.75 7.21312 0.976325 6.15152 1.41605C5.08992 1.85578 4.12533 2.5003 3.31282 3.31282C1.67187 4.95376 0.75 7.17936 0.75 9.5C0.75 11.8206 1.67187 14.0462 3.31282 15.6872C4.12533 16.4997 5.08992 17.1442 6.15152 17.5839C7.21312 18.0237 8.35093 18.25 9.5 18.25C11.8206 18.25 14.0462 17.3281 15.6872 15.6872C17.3281 14.0462 18.25 11.8206 18.25 9.5C18.25 8.35093 18.0237 7.21312 17.5839 6.15152C17.1442 5.08992 16.4997 4.12533 15.6872 3.31282C14.8747 2.5003 13.9101 1.85578 12.8485 1.41605C11.7869 0.976325 10.6491 0.75 9.5 0.75Z" fill="#C4C4C4"/>
</svg>
